<svg xmlns="http://www.w3.org/2000/svg" width="282" height="205.412" viewBox="0 0 282 205.412"><defs><style>.a{fill:#f7f7f7;}.b{fill:#e9eeef;}.c,.d,.f{fill:#fff;}.c,.d,.e{stroke:#252529;stroke-miterlimit:10;stroke-width:4px;}.c{stroke-linecap:round;}.e{fill:#6eb2fb;}</style></defs><g transform="translate(0 -10.001)"><g transform="translate(0 44)"><circle class="a" cx="80" cy="80" r="80" transform="translate(70)"/><path class="b" d="M4.5,0,9,9H0Z" transform="translate(256 27)"/><path class="b" d="M7,0l7,9H0Z" transform="translate(256.868 144.268) rotate(-45)"/><path class="b" d="M12.339,0,24.678,15.864H0Z" transform="translate(3.333 89.45) rotate(-45)"/><circle class="b" cx="7" cy="7" r="7" transform="translate(56)"/><circle class="b" cx="5" cy="5" r="5" transform="translate(44 48)"/><circle class="b" cx="9" cy="9" r="9" transform="translate(23 116)"/><circle class="b" cx="5" cy="5" r="5" transform="translate(241 58)"/><circle class="b" cx="3" cy="3" r="3" transform="translate(233 128)"/><circle class="b" cx="9" cy="9" r="9" transform="translate(242 93)"/><circle class="b" cx="9" cy="9" r="9" transform="translate(0 39)"/><rect class="b" width="10" height="10" transform="translate(272 58)"/><rect class="b" width="18" height="18" transform="translate(207 150)"/><rect class="b" width="14" height="14" transform="translate(49 101)"/><rect class="b" width="7" height="7" transform="translate(25 20)"/></g><g transform="translate(170.664 0) rotate(45)"><path class="b" d="M12-31.641c6.627,0,12,.324,12,11.467S12,0,12,0,0-9.032,0-20.175,5.373-31.641,12-31.641Z" transform="translate(69 211.641)"/><path class="c" d="M71.562,71.2S55.543,0,35.781,0,0,71.2,0,71.2Z" transform="translate(0 69)"/><path class="d" d="M-71.562,71.2S-55.543,0-35.781,0,0,71.2,0,71.2Z" transform="translate(143.562 69)"/><path class="e" d="M53.889,154.484c75.717,2.8,49.5-1.584,49.5-55.984S81.227,0,53.889,0s-49.5,44.1-49.5,98.5S-21.828,151.689,53.889,154.484Z" transform="translate(18.111 0)"/><path class="d" d="M14.315-37.744c7.906,0,14.315.387,14.315,13.678S14.315,0,14.315,0,0-10.775,0-24.066,6.409-37.744,14.315-37.744Z" transform="translate(57.685 205.986)"/><circle class="d" cx="20" cy="20" r="20" transform="translate(52 40)"/><circle class="d" cx="10" cy="10" r="10" transform="translate(62 96)"/><path class="f" d="M40,0C17.909,0,0,21.959,0,49.047,0,62.324,12.92,17.927,40,0Z" transform="translate(36.731 5.657)"/><path class="b" d="M15,0C6.716,0,0,8.53,0,19.052,0,24.21,4.845,6.964,15,0Z" transform="translate(57 44.343)"/><path class="b" d="M8,0C3.582,0,0,3.156,0,7.049,0,8.957,2.584,2.576,8,0Z" transform="translate(65 99)"/></g></g></svg>