<svg xmlns="http://www.w3.org/2000/svg" width="62.694" height="37.524" viewBox="0 0 62.694 37.524"><defs><style>.a{fill:#f1ad3d;}.b{fill:#d82332;}.c{fill:#fffffe;}.d{fill:none;stroke:#fffffe;stroke-miterlimit:10;stroke-width:0.216px;}</style></defs><g transform="translate(-0.031 -0.022)"><path class="a" d="M18.727,37.524,19.7,37.5l.956-.069.937-.12.93-.165.9-.209.893-.253.873-.3.855-.335.835-.38.81-.412.785-.456.766-.487.734-.525.709-.557.684-.589.652-.626.627-.652.588-.684.557-.709.525-.734.487-.766.456-.785.411-.81.38-.835.335-.855.3-.873.253-.892.209-.905.165-.93.12-.937.07-.956.025-.968-.025-.962-.07-.949-.12-.937-.165-.918-.209-.905-.253-.886-.3-.874-.335-.848-.38-.829-.411-.81L34.8,9.031l-.487-.766-.525-.734-.557-.7-.588-.683-.627-.652-.652-.621-.684-.588-.709-.557L29.239,3.2l-.766-.488-.785-.449-.81-.411-.835-.38-.855-.335-.873-.3L23.423.589l-.9-.209-.93-.165-.937-.12L19.7.025,18.727,0l-.962.025L16.81.095l-.937.12L14.949.38l-.905.209-.892.253-.867.3-.855.335-.829.38-.8.411-.785.449-.76.488-.734.525-.709.557-.677.588-.652.621-.62.652-.588.683-.557.7L3.2,8.266l-.487.766-.449.778-.418.81-.374.829-.335.848-.291.874-.253.886-.209.905-.165.918-.12.937-.07.949L0,18.727l.025.968.07.956.12.937.165.93.209.905.253.892.291.873.335.855.374.835.418.81.449.785.487.766.519.734.557.709.588.684.62.652.652.626.677.589.709.557.734.525.76.487.785.456.8.412.829.38.855.335.867.3.892.253.905.209.924.165.937.12.955.069.962.025" transform="translate(25.202 0.022)"/><path class="b" d="M18.8,37.524l.962-.025.956-.069.937-.12.924-.165.905-.209.892-.253.867-.3.855-.335.829-.38.8-.412.785-.456.759-.487.734-.525.709-.557.677-.589.652-.626.62-.652.588-.684.557-.709.519-.734.487-.766.449-.785.418-.81.373-.835.335-.855.291-.873.253-.892.209-.905.165-.93.12-.937.07-.956.025-.968-.025-.962-.07-.949-.12-.937-.165-.918-.209-.905-.253-.886-.291-.874-.335-.848-.373-.829-.418-.81-.449-.778-.487-.766-.519-.734-.557-.7-.588-.683-.62-.652-.652-.621-.677-.588-.709-.557L29.271,3.2l-.759-.488-.785-.449-.8-.411-.829-.38-.855-.335-.867-.3L23.48.589,22.575.38,21.651.215l-.937-.12L19.759.025,18.8,0l-.968.025-.956.069-.937.12L15.006.38l-.9.209-.892.253-.873.3-.855.335-.835.38-.81.411-.784.449L8.285,3.2l-.734.525-.709.557-.684.588-.652.621-.627.652-.588.683-.557.7-.525.734-.488.766-.456.778-.411.81-.38.829-.335.848-.3.874-.253.886-.209.905-.165.918-.12.937-.069.949L0,18.727l.025.968.069.956.12.937.165.93.209.905.253.892.3.873.335.855.38.835.411.81.456.785.488.766.525.734.557.709.588.684.627.652.652.626.684.589.709.557.734.525.766.487.784.456.81.412.835.38.855.335.873.3.892.253.9.209.931.165.937.12.956.069.968.025" transform="translate(0.032 0.022)"/><path class="a" d="M0,1.019H9.968V0H.861L0,1.019" transform="translate(29.182 6.199)"/><path class="a" d="M0,1.019H11.462V0H.6L0,1.019" transform="translate(27.689 8.465)"/><path class="a" d="M0,1.019H12.576V0H.443L0,1.019" transform="translate(26.575 10.724)"/><path class="a" d="M0,1.019H13.341V0H.316L0,1.019" transform="translate(25.809 12.99)"/><path class="a" d="M.316,1.019h12.93V0H0L.316,1.019" transform="translate(25.936 23.939)"/><path class="a" d="M.475,1.019H12.449V0H0L.475,1.019" transform="translate(26.733 26.205)"/><path class="a" d="M.639,1.019H11.272V0H0L.639,1.019" transform="translate(27.91 28.465)"/><path class="a" d="M.892,1.025H9.677V0H0L.892,1.025" transform="translate(29.505 30.724)"/><path class="a" d="M0,1.019H13.791V0H.2L0,1.019" transform="translate(25.36 15.25)"/><path class="a" d="M0,1.019H5.259V0H.19L0,1.019" transform="translate(33.765 21.68)"/><path class="a" d="M0,1.025H4.842V0H.19L0,1.025" transform="translate(34.182 19.414)"/><path class="a" d="M0,0H1.367V1.025H.063L0,0" transform="translate(25.012 19.414)"/><path class="c" d="M5.316,1.6l-.088-.006-.089-.013-.082-.013-.082-.012L4.9,1.538l-.082-.013-.082-.013L4.645,1.5l-.088-.013-.1-.006-.114-.006-.12-.006H4.088l-.145.006-.165.013L3.595,1.5l-.127.019-.12.019-.108.038-.095.038-.089.044-.082.051-.063.063-.057.057-.038.07-.032.07-.012.076V2.12l.019.082.025.082.051.082.063.082.126.12.152.1.177.082.19.07.2.063.209.069.209.076.2.082.19.107.177.133.158.158.133.2.1.24.063.285.025.342-.025.4-.045.3L5.1,5.525,5,5.766l-.127.209-.145.184-.165.158-.177.139-.2.12-.2.095-.209.082-.215.063-.221.051L3.126,6.9l-.209.019-.209.013-.2.006H2.24l-.253-.006H1.766L1.557,6.93l-.19-.006L1.2,6.911,1.044,6.9.9,6.88.766,6.867l-.12-.025-.12-.019L.418,6.791.31,6.766l-.1-.038-.1-.038L0,6.652l.285-1.4.057.013.069.019L.5,5.31l.108.025.114.025.126.025.139.032.152.025.158.025.165.025.171.019.177.019.184.006.183.006H2.36l.184-.006L2.728,5.5l.145-.051.114-.069.088-.089L3.139,5.2l.051-.1L3.221,5l.025-.1.013-.184L3.2,4.563l-.108-.126-.158-.108-.19-.1-.222-.095-.247-.088-.247-.1-.253-.114L1.538,3.7l-.222-.165-.2-.2L.955,3.1.841,2.817.784,2.475.791,2.07l.032-.247.044-.234L.93,1.374l.076-.2.1-.19L1.221.817,1.354.658,1.513.519,1.7.4,1.9.3,2.126.2,2.38.133,2.664.076l.31-.044L3.316.006,3.69,0h.234l.215.006.2.006.177.006.159.013.145.013.127.012L5.057.07l.108.013L5.253.1l.082.013.076.012.063.013.057.006.057.013.051.006L5.316,1.6" transform="translate(17.145 16.585)"/><path class="d" d="M5.316,1.6h0l-.088-.006-.089-.013-.082-.013-.082-.012L4.9,1.538l-.082-.013-.082-.013L4.645,1.5l-.088-.013-.1-.006-.114-.006-.12-.006H4.088l-.145.006-.165.013L3.595,1.5l-.127.019-.12.019-.108.038-.095.038-.089.044-.082.051-.063.063-.057.057-.038.07-.032.07-.012.076V2.12l.019.082.025.082.051.082.063.082.126.12.152.1.177.082.19.07.2.063.209.069.209.076.2.082.19.107.177.133.158.158.133.2.1.24.063.285.025.342-.025.4-.045.3L5.1,5.525,5,5.766l-.127.209-.145.184-.165.158-.177.139-.2.12-.2.095-.209.082-.215.063-.221.051L3.126,6.9l-.209.019-.209.013-.2.006H2.24l-.253-.006H1.766L1.557,6.93l-.19-.006L1.2,6.911,1.044,6.9.9,6.88.766,6.867l-.12-.025-.12-.019L.418,6.791.31,6.766l-.1-.038-.1-.038L0,6.652l.285-1.4.057.013.069.019L.5,5.31l.108.025.114.025.126.025.139.032.152.025.158.025.165.025.171.019.177.019.184.006.183.006H2.36l.184-.006L2.728,5.5l.145-.051.114-.069.088-.089L3.139,5.2l.051-.1L3.221,5l.025-.1.013-.184L3.2,4.563l-.108-.126-.158-.108-.19-.1-.222-.095-.247-.088-.247-.1-.253-.114L1.538,3.7l-.222-.165-.2-.2L.955,3.1.841,2.817.784,2.475.791,2.07l.032-.247.044-.234L.93,1.374l.076-.2.1-.19L1.221.817,1.354.658,1.513.519,1.7.4,1.9.3,2.126.2,2.38.133,2.664.076l.31-.044L3.316.006,3.69,0h.234l.215.006.2.006.177.006.159.013.145.013.127.012L5.057.07l.108.013L5.253.1l.082.013.076.012.063.013.057.006.057.013.051.006L5.316,1.6" transform="translate(17.145 16.585)"/><path class="c" d="M1.247,0H3L2.74,1.531H3.8L3.57,2.962,2.456,2.93,1.848,6.462l-.006.127.032.108.063.082.082.069.114.045.127.038.139.025.152.013.139-.006.127-.013.114-.019.1-.025.082-.025.057-.019.038-.013.013-.006L3,8.018l-.045.032L2.867,8.1l-.044.025-.045.019-.05.019-.057.019L2.614,8.2l-.064.019-.063.013-.076.012-.076.013-.082.013-.095.013-.1.012-.108.013H1.468l-.253-.019L.994,8.265l-.2-.038L.62,8.183.475,8.126l-.12-.063L.247,7.987.165,7.9.1,7.816.057,7.708.025,7.6l-.019-.12L0,7.348V7.208l.019-.145L.038,6.9,1.247,0" transform="translate(22.714 15.187)"/><path class="d" d="M1.247,0H3L2.74,1.531H3.8L3.57,2.962,2.456,2.93,1.848,6.462l-.006.127.032.108.063.082.082.069.114.045.127.038.139.025.152.013.139-.006.127-.013.114-.019.1-.025.082-.025.057-.019.038-.013.013-.006L3,8.018l-.045.032L2.867,8.1l-.044.025-.045.019-.05.019-.057.019L2.614,8.2l-.064.019-.063.013-.076.012-.076.013-.082.013-.095.013-.1.012-.108.013H1.468l-.253-.019L.994,8.265l-.2-.038L.62,8.183.475,8.126l-.12-.063L.247,7.987.165,7.9.1,7.816.057,7.708.025,7.6l-.019-.12L0,7.348V7.208l.019-.145L.038,6.9,1.247,0" transform="translate(22.714 15.187)"/><path class="c" d="M1.848,3.949l-.019.108-.006.114.012.12.025.12.044.12.051.114.07.12.076.108.089.108.095.095.1.095.114.076.114.07.127.057.127.044.127.025.164.025.159.019.165.019.165.013.165.006h.171l.165-.006.171-.013.171-.025.171-.032.177-.038.171-.057.177-.07.184-.076.177-.1L5.728,5,5.475,6.557l-.2.1-.1.038-.095.038-.095.032-.1.031-.1.025-.108.019-.114.019-.126.013L4.3,6.886,4.152,6.9,3.987,6.9H3.817l-.2.006H3.411L3.1,6.9l-.316-.032-.316-.044-.317-.076-.31-.095-.3-.12L1.26,6.38.994,6.2.747,5.981l-.215-.26L.348,5.43.2,5.095.089,4.721.019,4.3,0,3.829.032,3.31l.025-.2L.1,2.874l.051-.247.069-.266.1-.272.114-.272L.57,1.538l.177-.266.2-.253L1.2.778,1.475.563l.316-.19L2.158.215,2.57.1,3.025.025,3.538,0l.247.006.26.025L4.3.076l.259.063.253.095.247.114L5.291.5,5.5.677l.19.215.158.253.127.291.088.335.051.38.006.43-.044.481L5.981,3.6l-.032.386H1.335l.291-1.247H4.4l.013-.158L4.4,2.424l-.013-.139-.025-.126-.045-.12-.044-.108-.063-.1-.064-.088-.076-.076-.082-.063-.1-.057L3.8,1.5l-.1-.038-.1-.025-.108-.019L3.38,1.405l-.12.006-.114.019-.108.025-.108.038-.107.051-.1.057-.095.069-.082.076-.082.088-.076.1-.07.1-.057.108-.057.114-.045.127-.038.126L2.1,2.639l-.253,1.31" transform="translate(26.062 16.585)"/><path class="d" d="M1.848,3.949h0l-.019.108-.006.114.012.12.025.12.044.12.051.114.07.12.076.108.089.108.095.095.1.095.114.076.114.07.127.057.127.044.127.025.164.025.159.019.165.019.165.013.165.006h.171l.165-.006.171-.013.171-.025.171-.032.177-.038.171-.057.177-.07.184-.076.177-.1L5.728,5,5.475,6.557l-.2.1-.1.038-.095.038-.095.032-.1.031-.1.025-.108.019-.114.019-.126.013L4.3,6.886,4.152,6.9,3.987,6.9H3.817l-.2.006H3.411L3.1,6.9l-.316-.032-.316-.044-.317-.076-.31-.095-.3-.12L1.26,6.38.994,6.2.747,5.981l-.215-.26L.348,5.43.2,5.095.089,4.721.019,4.3,0,3.829.032,3.31l.025-.2L.1,2.874l.051-.247.069-.266.1-.272.114-.272L.57,1.538l.177-.266.2-.253L1.2.778,1.475.563l.316-.19L2.158.215,2.57.1,3.025.025,3.538,0l.247.006.26.025L4.3.076l.259.063.253.095.247.114L5.291.5,5.5.677l.19.215.158.253.127.291.088.335.051.38.006.43-.044.481L5.981,3.6l-.032.386H1.335l.291-1.247H4.4l.013-.158L4.4,2.424l-.013-.139-.025-.126-.045-.12-.044-.108-.063-.1-.064-.088-.076-.076-.082-.063-.1-.057L3.8,1.5l-.1-.038-.1-.025-.108-.019L3.38,1.405l-.12.006-.114.019-.108.025-.108.038-.107.051-.1.057-.095.069-.082.076-.082.088-.076.1-.07.1-.057.108-.057.114-.045.127-.038.126L2.1,2.639l-.253,1.31" transform="translate(26.062 16.585)"/><path class="c" d="M6.455,2.2l-.082-.044-.082-.038L6.2,2.07l-.095-.045-.095-.038L5.9,1.949,5.8,1.911l-.114-.038-.12-.031-.12-.025L5.31,1.791l-.133-.019-.146-.013-.145-.013H4.417l-.165.013-.171.019L3.9,1.81l-.177.051-.177.07-.177.089L3.2,2.133l-.171.139-.165.165-.158.2-.152.234-.139.278-.133.316-.12.355-.1.405-.038.228-.025.222L1.981,4.9l.006.215.019.215.044.2.057.19.07.19.095.171.114.165.133.146.152.133.171.114.2.1.215.082.241.057.082.019.1.019.114.012.126.013.139.013h.3l.159-.013.165-.019.165-.031L5,6.842l.158-.051.158-.07.146-.082.133-.1.127-.114-.285,1.69L5.4,8.145l-.038.038-.051.045-.057.038-.07.051-.088.044-.1.044-.114.038-.145.044-.165.032-.19.025-.222.025-.247.012-.285.006L3.3,8.582l-.354-.019-.291-.032-.291-.063-.291-.1-.291-.127-.278-.152L1.24,7.9.987,7.683.753,7.43.544,7.145.367,6.829.215,6.474.1,6.088.025,5.664,0,5.215l.012-.494L.082,4.2l.051-.259L.19,3.683l.063-.247L.316,3.2l.07-.222.082-.222L.551,2.55l.088-.2.1-.2.095-.184L.937,1.8l.114-.165.114-.158.126-.152.127-.139.133-.133L1.7.924,1.841.8,1.994.7l.158-.1L2.323.5,2.494.418,2.671.342l.183-.07.2-.063.2-.051.2-.044L3.664.076,3.88.044,4.107.019,4.335.006,4.576,0l.2.006.2.013.19.019.19.025.177.025L5.7.126l.165.032L6.019.2l.145.038.127.038.12.038.1.038L6.6.38l.076.025L6.734.43l.038.013L6.455,2.2" transform="translate(36.549 14.902)"/><path class="d" d="M6.455,2.2h0l-.082-.044-.082-.038L6.2,2.07l-.095-.045-.095-.038L5.9,1.949,5.8,1.911l-.114-.038-.12-.031-.12-.025L5.31,1.791l-.133-.019-.146-.013-.145-.013H4.417l-.165.013-.171.019L3.9,1.81l-.177.051-.177.07-.177.089L3.2,2.133l-.171.139-.165.165-.158.2-.152.234-.139.278-.133.316-.12.355-.1.405-.038.228-.025.222L1.981,4.9l.006.215.019.215.044.2.057.19.07.19.095.171.114.165.133.146.152.133.171.114.2.1.215.082.241.057.082.019.1.019.114.012.126.013.139.013h.3l.159-.013.165-.019.165-.031L5,6.842l.158-.051.158-.07.146-.082.133-.1.127-.114-.285,1.69L5.4,8.145l-.038.038-.051.045-.057.038-.07.051-.088.044-.1.044-.114.038-.145.044-.165.032-.19.025-.222.025-.247.012-.285.006L3.3,8.582l-.354-.019-.291-.032-.291-.063-.291-.1-.291-.127-.278-.152L1.24,7.9.987,7.683.753,7.43.544,7.145.367,6.829.215,6.474.1,6.088.025,5.664,0,5.215l.012-.494L.082,4.2l.051-.259L.19,3.683l.063-.247L.316,3.2l.07-.222.082-.222L.551,2.55l.088-.2.1-.2.095-.184L.937,1.8l.114-.165.114-.158.126-.152.127-.139.133-.133L1.7.924,1.841.8,1.994.7l.158-.1L2.323.5,2.494.418,2.671.342l.183-.07.2-.063.2-.051.2-.044L3.664.076,3.88.044,4.107.019,4.335.006,4.576,0l.2.006.2.013.19.019.19.025.177.025L5.7.126l.165.032L6.019.2l.145.038.127.038.12.038.1.038L6.6.38l.076.025L6.734.43l.038.013L6.455,2.2" transform="translate(36.549 14.902)"/><path class="c" d="M5.8,8.278H4.044l.127-.7V7.512l-.1.126-.107.114-.108.1-.114.088-.114.082-.114.069L3.4,8.152l-.12.057-.12.045-.12.031-.12.031-.126.019-.127.019-.12.012-.127.007H2.291l-.329-.025-.3-.07L1.38,8.171l-.253-.145L.9,7.841.7,7.626.519,7.392.367,7.126.24,6.842l-.1-.3-.07-.31L.019,5.911,0,5.589l.006-.329.031-.323.057-.323L.19,4.24.3,3.886l.133-.323.158-.3.165-.285.19-.253.2-.228.209-.209L1.576,2.1l.234-.158L2.051,1.8l.24-.108.253-.089L2.8,1.551l.253-.038L3.31,1.5l.184.006.177.019.165.031.152.044.146.051.126.057.127.07.114.07.1.076.095.082.082.082.076.082.063.082.057.082.051.076.038.076L5.506,0H7.228L5.8,8.278" transform="translate(52.789 15.218)"/><path class="d" d="M5.8,8.278H4.044l.127-.7V7.512l-.1.126-.107.114-.108.1-.114.088-.114.082-.114.069L3.4,8.152l-.12.057-.12.045-.12.031-.12.031-.126.019-.127.019-.12.012-.127.007H2.291l-.329-.025-.3-.07L1.38,8.171l-.253-.145L.9,7.841.7,7.626.519,7.392.367,7.126.24,6.842l-.1-.3-.07-.31L.019,5.911,0,5.589l.006-.329.031-.323.057-.323L.19,4.24.3,3.886l.133-.323.158-.3.165-.285.19-.253.2-.228.209-.209L1.576,2.1l.234-.158L2.051,1.8l.24-.108.253-.089L2.8,1.551l.253-.038L3.31,1.5l.184.006.177.019.165.031.152.044.146.051.126.057.127.07.114.07.1.076.095.082.082.082.076.082.063.082.057.082.051.076.038.076L5.506,0H7.228L5.8,8.278" transform="translate(52.789 15.218)"/><path class="a" d="M.892,3.722l.177-.013.165-.038.152-.045.146-.069.133-.076.127-.095.12-.108.108-.114.095-.127L2.2,2.9l.082-.145.07-.152.063-.158.051-.165.044-.171.032-.171.032-.177.019-.184V1.405l-.006-.177L2.57,1.063,2.544.905,2.5.753,2.449.608,2.386.481,2.31.361,2.228.26,2.133.171,2.025.1,1.911.045,1.791.013,1.658,0,1.487.013,1.329.038,1.184.089,1.038.152.911.235l-.127.1L.677.443.57.563.475.7.386.848.3,1l-.07.165-.063.171L.12,1.506.07,1.69l-.038.184L0,2.152l.013.3.044.31.082.3.126.26.165.209.209.139.253.051" transform="translate(54.827 18.243)"/><path class="c" d="M5.766,5.456,5.512,6.861H3.918L3.962,6.6l.032-.234.025-.177.025-.095-.089.1-.1.1-.12.1L3.6,6.481l-.152.088-.158.076-.165.076-.171.063-.183.057-.184.045-.184.038-.19.025-.184.013-.184.006-.177-.019L1.5,6.924l-.222-.057-.2-.063L.9,6.722l-.158-.1L.6,6.525.475,6.411l-.1-.12L.285,6.165.209,6.032.146,5.892.1,5.753.057,5.614.032,5.468.013,5.323,0,5.183V5.044L.019,4.8l.038-.234L.12,4.342.2,4.127l.1-.2L.418,3.74l.133-.177L.7,3.405.861,3.26l.177-.133.183-.12.19-.1.2-.088.209-.07.215-.057.222-.038h.013L2.3,2.646l.045-.006.069-.006.076-.013.088-.006L2.677,2.6l.108-.013.108-.013L3,2.563l.114-.006.1-.012.1-.006.095-.006L3.5,2.525h.215l.152.006.139.006h.139l.114.006.088.006.063.006H4.43l.013-.044L4.481,2.4l.032-.133.013-.12L4.5,2.007,4.443,1.88l-.076-.114-.1-.095-.12-.082-.133-.057-.152-.038L3.7,1.481l-.177-.006-.19-.006h-.2l-.2.006-.209.013-.2.019-.2.019-.2.025-.19.025-.184.031-.165.032-.152.032-.139.038-.114.038-.088.044-.07.038L1.468.3,1.608.247,1.747.2,1.9.152,2.2.089,2.367.064,2.532.038,2.7.025,2.88.013,3.063.006,3.253,0h.608l.222.006L4.3.013l.177.013.19.032.2.044.2.057.2.076.19.089.19.108.177.12L5.981.69,6.12.842l.127.171.095.19.063.2.038.215v.241L6.4,2.114,5.766,5.456" transform="translate(11.088 16.636)"/><path class="d" d="M5.766,5.456,5.512,6.861H3.918L3.962,6.6l.032-.234.025-.177.025-.095-.089.1-.1.1-.12.1L3.6,6.481l-.152.088-.158.076-.165.076-.171.063-.183.057-.184.045-.184.038-.19.025-.184.013-.184.006-.177-.019L1.5,6.924l-.222-.057-.2-.063L.9,6.722l-.158-.1L.6,6.525.475,6.411l-.1-.12L.285,6.165.209,6.032.146,5.892.1,5.753.057,5.614.032,5.468.013,5.323,0,5.183V5.044L.019,4.8l.038-.234L.12,4.342.2,4.127l.1-.2L.418,3.74l.133-.177L.7,3.405.861,3.26l.177-.133.183-.12.19-.1.2-.088.209-.07.215-.057.222-.038h.013L2.3,2.646l.045-.006.069-.006.076-.013.088-.006L2.677,2.6l.108-.013.108-.013L3,2.563l.114-.006.1-.012.1-.006.095-.006L3.5,2.525h.215l.152.006.139.006h.139l.114.006.088.006.063.006H4.43l.013-.044L4.481,2.4l.032-.133.013-.12L4.5,2.007,4.443,1.88l-.076-.114-.1-.095-.12-.082-.133-.057-.152-.038L3.7,1.481l-.177-.006-.19-.006h-.2l-.2.006-.209.013-.2.019-.2.019-.2.025-.19.025-.184.031-.165.032-.152.032-.139.038-.114.038-.088.044-.07.038L1.468.3,1.608.247,1.747.2,1.9.152,2.2.089,2.367.064,2.532.038,2.7.025,2.88.013,3.063.006,3.253,0h.608l.222.006L4.3.013l.177.013.19.032.2.044.2.057.2.076.19.089.19.108.177.12L5.981.69,6.12.842l.127.171.095.19.063.2.038.215v.241L6.4,2.114,5.766,5.456" transform="translate(11.088 16.636)"/><path class="b" d="M2.272.114,2.266.082,2.241.051,2.2.032,2.139.019,2.07.006,1.987,0H1.8L1.7.006,1.588.019l-.1.012-.1.013L1.291.057,1.2.076,1.127.1l-.07.019L1.013.127.962.146.892.171.823.2.741.241.658.285.57.329.487.38.4.443.317.506.241.582.171.658.108.741.063.829.025.93l-.019.1L0,1.247l.032.171.063.126.082.1L.272,1.7l.108.038.1.019.1.006.19-.006.171-.019.165-.025.145-.038.127-.044.12-.057.108-.057.1-.07.082-.063.076-.076.063-.07.051-.076.044-.076.038-.076.032-.07.019-.07L2.158.69,2.2.481l.038-.2L2.272.114" transform="translate(13.056 20.326)"/><path class="c" d="M1.721,8.31H0L1.437,0H4.43l.285,4.93L6.785,0H9.911L8.443,8.31H6.721L7.81,2.1H7.74L5.164,8.31H3.221L3.209,8.05l-.044-.69-.057-.981L2.981,4.12l-.057-.994L2.88,2.4l-.013-.3H2.772L1.721,8.31" transform="translate(1.816 15.187)"/><path class="d" d="M1.721,8.31H0L1.437,0H4.43l.285,4.93L6.785,0H9.911L8.443,8.31H6.721L7.81,2.1H7.74L5.164,8.31H3.221L3.209,8.05l-.044-.69-.057-.981L2.981,4.12l-.057-.994L2.88,2.4l-.013-.3H2.772L1.721,8.31" transform="translate(1.816 15.187)"/><path class="c" d="M5.734,5.456,5.475,6.861H3.886L3.9,6.6,3.9,6.373V6.2l.013-.076-.082.095-.095.1L3.627,6.4,3.5,6.494l-.133.082-.152.076-.158.076L2.9,6.791l-.171.051-.177.051-.178.032L2.2,6.949l-.184.013-.177.006-.171-.019-.171-.025-.228-.057-.2-.063L.886,6.722l-.165-.1-.139-.1-.12-.114-.1-.12L.272,6.165.2,6.032.139,5.892.089,5.753.057,5.614.032,5.468.013,5.323,0,5.183V5.044L.013,4.8l.038-.234.057-.222L.19,4.127l.095-.2.12-.184.133-.177.146-.158L.848,3.26l.171-.133.183-.12.2-.1.2-.088.209-.07.209-.057.215-.038h.013l.032-.006.044-.006.063-.006.082-.013.089-.006L2.646,2.6l.1-.013.108-.013.114-.013.108-.006.108-.012.1-.006.089-.006.088-.006h.222l.152.006.146.006H4.12l.12.006.1.006.057.006h.025l.012-.044L4.456,2.4l.019-.133.012-.12-.025-.139L4.411,1.88l-.082-.114-.095-.095L4.12,1.589l-.133-.057-.139-.038L3.7,1.481l-.177-.006-.19-.006h-.2l-.2.006-.209.013-.2.019-.2.019-.2.025-.19.025-.183.031-.165.032-.152.032-.139.038-.114.038-.088.044-.07.038L1.462.3,1.6.247,1.747.2,1.892.152,2.044.12,2.2.089,2.361.064,2.525.038,2.7.025,2.874.013,3.057.006,3.24,0h.595L4.05.006l.215.006.177.013.19.032.2.044.2.057.2.076.2.089.19.108.177.12L5.949.69l.145.152.127.171.1.19.069.2.045.215v.241L6.4,2.114,5.734,5.456" transform="translate(42.53 16.636)"/><path class="c" d="M.038,1.456l.038-.038L.335.013.26,0,0,1.405l.038-.038v.088L.07,1.449l.006-.031-.038.038" transform="translate(47.966 22.085)"/><path class="c" d="M.006.044.045.088H1.633V0H.045L.082.044H.006L0,.088H.045L.006.044" transform="translate(46.372 23.452)"/><path class="c" d="M.1.051.044,0,.019.1.013.272V.5L0,.759H.076L.088.5.1.272.095.1V.051L.038,0,.1.051" transform="translate(46.378 22.737)"/><path class="c" d="M0,.861H0L.177.886.348.905.525.9.709.886.892.861,1.07.829,1.247.778l.177-.05L1.582.665,1.747.588,1.9.513,2.032.424,2.165.335,2.278.247l.1-.1L2.462.051,2.4,0,2.317.095,2.228.183,2.114.272l-.12.088L1.861.437l-.3.152L1.4.652,1.234.7,1.057.753.88.785.709.81.525.823.348.829.177.81.013.785,0,.861" transform="translate(44.017 22.737)"/><path class="c" d="M0,0H0L.006.139.019.278.038.43.063.576.095.715.145.861.2,1.006l.082.133.088.133.1.12.127.12.146.1.165.1.183.082.209.063.228.057.013-.076-.228-.057-.2-.063L.949,1.639.785,1.551l-.133-.1L.538,1.342l-.1-.12L.348,1.1.278.968.222.835.171.7.139.563.114.418.095.278.082.139.088,0H0" transform="translate(42.486 21.68)"/><path class="c" d="M2.272,0h0L2.051.038,1.835.095,1.627.164l-.2.089-.2.1-.19.127L.867.614.7.766.551.924.418,1.1l-.126.19L.2,1.5l-.082.215-.057.228-.038.24L0,2.43H.088l.006-.247.038-.228L.19,1.74l.082-.215.095-.2.114-.177L.614.974.753.816.918.677,1.088.544,1.266.43l.2-.1L1.652.24l.209-.07.2-.057L2.272.076V0" transform="translate(42.486 19.25)"/><path class="c" d="M1.3,0h-.07L1.146.013,1.057.019l-.1.006L.848.038.741.044.627.057.519.07l-.1.012L.323.095.234.1.152.114.088.12.038.127.013.133H0V.209H.013L.051.2.088.2.152.19.234.177.323.171.418.158l.1-.013L.627.133.741.12.848.114.956.1l.1-.006L1.146.088H1.3V0" transform="translate(44.758 19.117)"/><path class="c" d="M.854.07.892.038H.867L.81.032.709.025.588.013H.3L.152,0H0V.088H.3L.449.1H.709l.1.006L.867.114H.892L.93.082.892.114.924.12.93.082.854.07" transform="translate(46.062 19.117)"/><path class="c" d="M.063,0H.057L.051.12.032.247.013.361,0,.405.076.418.089.373.108.259.127.12.146,0H.063" transform="translate(46.916 18.781)"/><path class="c" d="M0,.082V.088L.145.095.278.133.4.19.513.266.6.354.677.462.728.576.753.709H.829L.8.563.753.424.665.3.563.2.443.114.3.057.158.019,0,0V.082" transform="translate(46.226 18.073)"/><path class="c" d="M0,.4.063.437.127.405.209.361.317.323.456.285.608.253.772.222.956.19,1.139.165l.2-.025.2-.019L1.741.1,1.949.088h.589l.177.006V.019L2.538.013,2.348,0h-.2l-.2.013L1.741.025l-.2.019-.2.019-.2.025-.2.025L.76.145.6.177.443.209.3.247.184.285.089.329.013.373.076.412,0,.4" transform="translate(43.511 18.06)"/><path class="c" d="M.468,0,.443.032,0,1.557l.076.013L.519.044.494.076.468,0,.45.006.443.032.468,0" transform="translate(43.511 16.902)"/><path class="c" d="M2.816.019h0L2.6.006,2.386,0H1.791L1.608.013,1.424.019,1.247.032,1.076.044.905.07.747.1.589.127.437.159.285.2.139.253,0,.31.025.386.165.329.31.278.449.234.6.2.76.171.918.146,1.076.12,1.247.108,1.424.1,1.608.089h.778L2.6.1h.215V.019" transform="translate(43.979 16.591)"/><path class="c" d="M2.171,2.145h0L2.2,1.886V1.645l-.044-.222-.07-.209-.1-.2L1.861.842,1.709.684,1.551.544,1.367.424,1.177.31.975.222.778.145.57.089.374.044.177.013,0,0V.076L.177.089.361.12l.2.044.2.057L.95.3l.19.088.19.1L1.5.608l.158.139L1.8.892l.127.165.088.184.07.2.044.209v.241L2.1,2.133l.076.012" transform="translate(46.796 16.611)"/><path class="c" d="M.076,3.354h0L.74.012.665,0,0,3.341l.076.013" transform="translate(48.226 18.744)"/><path class="a" d="M2.234.12,2.221.082,2.2.051,2.152.032,2.088.013,2.019.006,1.937,0H1.842l-.1.006-.1.013-.1.013-.1.012-.1.013L1.253.076,1.171.089,1.088.108,1.025.12.981.127.93.146.867.165.8.19.715.228.639.266.551.31.386.424.3.494.234.563.165.646.108.734.063.829l-.038.1-.019.107L0,1.253l.032.171.051.126.076.1.095.063.108.038.108.019.108.006.19-.006.177-.019.165-.032.145-.044.139-.051.12-.057L1.627,1.5l.1-.076.088-.07.076-.082L1.962,1.2l.057-.082.044-.076L2.095.962,2.12.886,2.139.817,2.164.639,2.2.456,2.221.278,2.234.12" transform="translate(44.498 20.319)"/><path class="c" d="M0,.855.013.709.063.538.152.386.26.253.392.145.544.07.709.019.886,0l.177.019L1.228.07,1.38.145l.133.108L1.62.386l.089.152L1.76.709l.012.146h-.19L1.576.741,1.538.6,1.475.475,1.392.367l-.1-.088L1.171.215,1.032.171.886.158.741.171.6.215.481.278.38.367.3.475.234.6.2.741.184.855H0" transform="translate(59.77 21.775)"/><path class="c" d="M0,.38V0H.348L.424.006l.07.013L.544.038.588.063.62.1.645.139.658.183.665.228.658.285.645.329.627.367.614.38H.348L.373.373.418.367.456.354.487.342.513.323.525.3.538.272V.228L.531.2.519.171.5.158.481.145.449.139.418.133H.158V.38H0" transform="translate(60.34 22.25)"/><path class="c" d="M.006,0,0,.038.019.222.07.392.159.544.266.671.4.778.551.861.715.911.892.93,1.07.911,1.234.861,1.386.778,1.519.671,1.627.544,1.715.392,1.766.222,1.785.038,1.778,0h-.19L1.6.038,1.582.19,1.545.329l-.063.12L1.4.557,1.3.645l-.12.07L1.038.759.892.772.747.759.608.715.488.645.386.557.3.449.241.329.2.19.19.038V0H.006" transform="translate(59.764 22.629)"/><path class="c" d="M0,0V.386H.158V.069H.316l.19.317H.633L.443.069H.487L.531.057.57.044.6.019.614,0H.348L.316.006H.158V0H0" transform="translate(60.34 22.629)"/><path class="d" d="M.893,1.785h0L.715,1.766l-.165-.05L.4,1.633.266,1.526.158,1.4.069,1.247l-.05-.17L0,.893.019.708l.05-.17L.158.386.266.253.4.146.551.069.715.019.893,0,1.07.019l.164.05.152.077.133.107.107.133.089.152.05.17.019.185-.019.184-.05.17L1.626,1.4l-.107.127-.133.107-.152.083-.164.05-.177.019Zm0-1.627h0L.747.171.608.215.488.278l-.1.089L.3.475.24.6.2.741.19.893.2,1.044l.038.14L.3,1.3l.082.107.1.089.12.069.14.044.146.013.146-.013.139-.044L1.3,1.5l.1-.089L1.481,1.3l.063-.121.038-.14L1.595.893,1.582.741,1.544.6,1.481.475,1.4.367,1.3.278,1.177.215,1.039.171.893.158ZM.734,1.241H.576V.475H.924L1,.481l.07.013.05.02.044.025L1.2.576l.025.038.013.044L1.24.7,1.234.76,1.221.8,1.2.842,1.177.873,1.146.9,1.108.912,1.063.924H1.019l.189.314-.125,0L.893.924H.735V1.24Z" transform="translate(59.764 21.775)"/><path class="c" d="M0,6.848H1.784l.639-3.6.025-.139.076-.278.051-.139.063-.139.076-.133L2.8,2.291l.1-.12.114-.108.127-.1.146-.095.165-.076.183-.063.2-.051.222-.038L4.3,1.627h.158L4.746,0,4.569.013,4.4.032,4.24.063,4.088.108,3.949.158,3.816.222,3.69.291l-.12.076L3.456.456,3.348.545l-.2.2L3.05.855l-.095.12-.1.114-.088.126L2.962.07H1.183L0,6.848" transform="translate(48.739 16.648)"/><path class="d" d="M0,6.848H1.784l.639-3.6.025-.139.076-.278.051-.139.063-.139.076-.133L2.8,2.291l.1-.12.114-.108.127-.1.146-.095.165-.076.183-.063.2-.051.222-.038L4.3,1.627h.158L4.746,0,4.569.013,4.4.032,4.24.063,4.088.108,3.949.158,3.816.222,3.69.291l-.12.076L3.456.456,3.348.545l-.2.2L3.05.855l-.095.12-.1.114-.088.126L2.962.07H1.183L0,6.848" transform="translate(48.739 16.648)"/><path class="c" d="M0,6.848H1.816l.608-3.6.025-.139.031-.133.032-.133.044-.127.051-.126.063-.12.076-.114.088-.108.1-.1.114-.095.139-.076.152-.07.177-.057.2-.051.215-.032.247-.019H4.2l.025.006.032.006h.032l.031.006.025.006.019.006h.006l.006-.025.019-.076.025-.114.032-.139.044-.165.044-.177L4.595.911,4.652.734,4.7.614l.127-.24L4.892.266l.057-.1L4.993.1,5.025.051,5.038.032H5.031L5.006.025,4.974.019,4.93.013H4.886L4.835.006,4.791,0H4.747l-.2.013L4.373.032,4.209.063,4.057.1,3.911.152,3.778.215l-.12.063L3.544.355,3.437.437l-.1.1L3.24.627l-.1.108L3.05.842l-.088.12-.19.253L3,.07H1.184L0,6.848" transform="translate(31.98 16.648)"/><path class="d" d="M0,6.848H1.816l.608-3.6.025-.139.031-.133.032-.133.044-.127.051-.126.063-.12.076-.114.088-.108.1-.1.114-.095.139-.076.152-.07.177-.057.2-.051.215-.032.247-.019H4.2l.025.006.032.006h.032l.031.006.025.006.019.006h.006l.006-.025.019-.076.025-.114.032-.139.044-.165.044-.177L4.595.911,4.652.734,4.7.614l.127-.24L4.892.266l.057-.1L4.993.1,5.025.051,5.038.032H5.031L5.006.025,4.974.019,4.93.013H4.886L4.835.006,4.791,0H4.747l-.2.013L4.373.032,4.209.063,4.057.1,3.911.152,3.778.215l-.12.063L3.544.355,3.437.437l-.1.1L3.24.627l-.1.108L3.05.842l-.088.12-.19.253L3,.07H1.184L0,6.848" transform="translate(31.98 16.648)"/><path class="a" d="M0,.7V.677L.051.513.139.367.247.241.38.139.531.063.7.019.873,0l.177.019.165.044.152.076.133.1.108.127L1.7.513l.051.165V.7H1.563L1.525.57,1.462.449,1.38.342l-.1-.088-.12-.07L1.019.139.873.127.728.139.588.184l-.12.07-.1.088L.285.449.222.57.184.7H0" transform="translate(59.783 29.452)"/><path class="a" d="M0,.222V0H.424l.07.013L.544.025.588.051.62.082.645.12.658.165.665.222H.538V.19L.531.159.519.133.5.12.481.108.449.1.418.1H.158V.222H0" transform="translate(60.34 29.933)"/><path class="a" d="M0,.139.019,0H.2V.006L.19.139H0" transform="translate(59.764 30.154)"/><path class="a" d="M0,.139V0H.158V.127H.316L.373.114.418.108.456.1.487.082.513.063.525.045.538.013V0H.665L.658.045.645.082.627.114.6.139H0" transform="translate(60.34 30.154)"/><path class="a" d="M.013.139,0,.006V0H.184L.2.139H.013" transform="translate(61.346 30.154)"/><path class="a" d="M0,0V.019L.019.2.07.373.159.525.266.658.4.766.551.842.715.892.892.911,1.07.892,1.234.842,1.386.766,1.519.658,1.627.525,1.715.373,1.766.2,1.785.019V0H1.6V.019L1.582.171,1.545.31,1.481.43,1.4.538,1.3.627,1.177.7,1.038.74.892.753.747.74.608.7.488.627.386.538.3.43.241.31.2.171.19.019V0H0" transform="translate(59.764 30.294)"/><path class="a" d="M0,0V.367H.158V.051H.316l.19.316H.633L.443.051H.487L.531.038.57.025.6,0H0" transform="translate(60.34 30.294)"/></g></svg>