<svg xmlns="http://www.w3.org/2000/svg" width="113" height="30" viewBox="0 0 113 30"><defs><style>.a{fill:#26769c;}.b{fill:#24516f;}</style></defs><path class="a" d="M4.642,18h0A4.668,4.668,0,0,1,.963,16.51,5.329,5.329,0,0,1,.14,12,5.938,5.938,0,0,1,3.932,7.61a20.742,20.742,0,0,1,7.993-1.2,1.782,1.782,0,0,0-.189-1.581c-.386-.489-1.166-.717-2.455-.717-.121,0-.25,0-.382.006A18.052,18.052,0,0,0,3.231,5.327l.517-4.246c.4-.081.841-.187,1.3-.3A21.906,21.906,0,0,1,10.379,0l.314,0c3.9,0,5.663,1.157,6.452,2.128a4.52,4.52,0,0,1,.7,3.941L15.338,17.663h-5.8l.387-1.752A7.789,7.789,0,0,1,4.642,18Zm5.029-7.685c-1.327,0-2.955.372-3.542,1.417a1.493,1.493,0,0,0-.113,1.559,1.842,1.842,0,0,0,1.616.87l.107,0a2.9,2.9,0,0,0,3.026-2.292c.063-.265.111-.518.159-.763s.1-.514.165-.788Z" transform="translate(77 5)"/><path class="a" d="M4.911,0,0,22H6.029L11,0H4.911" transform="translate(96)"/><path class="a" d="M6.408,22H0L4.889,0H15.92a6.387,6.387,0,0,1,4.905,2.212A6.082,6.082,0,0,1,21.8,7.49a8.993,8.993,0,0,1-3.279,5.316,9.577,9.577,0,0,1-5.9,1.906H8.059L6.408,22Zm3.9-17.519h0L8.984,10.5h2.973A4.081,4.081,0,0,0,15.723,7.49a2.509,2.509,0,0,0-.392-2.18,2.3,2.3,0,0,0-1.854-.83H10.306Z" transform="translate(57)"/><path class="b" d="M4.628,18h0A4.649,4.649,0,0,1,.964,16.513,5.332,5.332,0,0,1,.14,12,5.938,5.938,0,0,1,3.932,7.61a20.745,20.745,0,0,1,7.994-1.2,1.817,1.817,0,0,0-.237-1.58c-.4-.489-1.184-.717-2.472-.717-.122,0-.25,0-.383.006a17.053,17.053,0,0,0-5.6,1.213l.515-4.246C4.115,1,4.517.9,4.942.8A21.627,21.627,0,0,1,10.317,0l.314,0c3.942,0,5.718,1.168,6.514,2.148a4.494,4.494,0,0,1,.706,3.92L15.34,17.663H9.479l.385-1.752A7.624,7.624,0,0,1,4.628,18Zm4.979-7.685c-.448,0-2.721.068-3.478,1.417a1.524,1.524,0,0,0-.124,1.589,1.78,1.78,0,0,0,1.562.84l.107,0a2.975,2.975,0,0,0,3.092-2.292,10.725,10.725,0,0,1,.258-1.285c.022-.09.043-.177.064-.266Z" transform="translate(20 5)"/><path class="b" d="M1.938,0h6.01l.97,10.446L14.8,0H21L6.72,25H0l4.394-7.35L1.938,0" transform="translate(39 5)"/><path class="b" d="M6.474,22H0L4.887,0H15.918a6.3,6.3,0,0,1,4.913,2.194,6.1,6.1,0,0,1,.966,5.3,8.988,8.988,0,0,1-9.115,7.222H8.059L6.474,22Zm3.9-17.519L8.983,10.5h3.038a4.036,4.036,0,0,0,3.7-3.009,2.409,2.409,0,0,0-.335-2.149,2.279,2.279,0,0,0-1.845-.86h-3.17Z"/><path class="b" d="M.83,3V.354H0V0H2V.354H1.165V3H.83" transform="translate(107)"/><path class="b" d="M0,3V0H.622l.746,2.123c.069.2.119.345.15.444.036-.109.092-.269.168-.48L2.44,0H3V3H2.6V.488L1.683,3H1.308L.4.447V3H0" transform="translate(110)"/></svg>